<?xml version="1.0" encoding="iso-8859-1"?>
<!-- Generator: Adobe Illustrator 19.0.0, SVG Export Plug-In . SVG Version: 6.00 Build 0)  -->
<!-- Downlodaded from http://www.flaticon.com/packs/design-and-development-elements -->
<svg version="1.1" id="Capa_1" xmlns="http://www.w3.org/2000/svg" xmlns:xlink="http://www.w3.org/1999/xlink" x="0px" y="0px"
	 viewBox="0 0 490 490" style="enable-background:new 0 0 490 490; fill: rgb(54, 69, 89);" xml:space="preserve">
<g>
	<g>
		<g>
			<path d="M245,490C109.5,490,0,380.5,0,245S109.5,0,245,0s245,109.5,245,245S380.5,490,245,490z M245,40.7
				C132.4,40.7,40.7,132.4,40.7,245S132.4,449.3,245,449.3S449.3,357.6,449.3,245S357.6,40.7,245,40.7z"/>
			<path d="M197,328.4l-51-76.1c-6.3-9.4-4.2-21.9,5.2-28.1s21.9-4.2,28.1,5.2l37.5,55.3l95.7-95.7c8.1-8.1,21.4-8.4,29.5-0.2
				c8.3,8.3,8.2,20.8-0.1,29.1L228.3,330.5C225,334.6,209,343.3,197,328.4z"/>
		</g>
	</g>
</g>
<g>
</g>
<g>
</g>
<g>
</g>
<g>
</g>
<g>
</g>
<g>
</g>
<g>
</g>
<g>
</g>
<g>
</g>
<g>
</g>
<g>
</g>
<g>
</g>
<g>
</g>
<g>
</g>
<g>
</g>
</svg>
