<?xml version="1.0" encoding="iso-8859-1"?>
<!-- Generator: Adobe Illustrator 19.0.0, SVG Export Plug-In . SVG Version: 6.00 Build 0)  -->
<!-- Downlodaded from http://www.flaticon.com/packs/design-and-development-elements -->
<svg version="1.1" id="Capa_1" xmlns="http://www.w3.org/2000/svg" xmlns:xlink="http://www.w3.org/1999/xlink" x="0px" y="0px"
	 viewBox="0 0 489.3 489.3" style="enable-background:new 0 0 489.3 489.3; fill: rgb(54, 69, 89);" xml:space="preserve">
<g>
	<g>
		<g>
			<path d="M453.95,151L299.85,5.2c-3.1-3.1-8.3-5.2-13.5-5.2H49.95c-11.5,0-20.8,9.4-20.8,20.8v447.7c0,11.5,9.4,20.8,20.8,20.8
				h389.4c11.5,0,20.8-9.4,20.8-20.8v-303C460.15,160.4,458.05,155.2,453.95,151z M418.55,448.8H69.75V40.6h208.2l140.6,134.3V448.8
				z"/>
		</g>
		<g>
			<path d="M152.25,278.5c2.5,0,7.9,4,12.6,15c2.9,6.9,10.9,10.1,17.7,7.1c6.9-2.9,10.1-10.9,7.1-17.7c-8.5-20-22.2-31.5-37.4-31.5
				c-14.3,0-26.9,9.7-35.5,27.3c-7.1,14.6-11.1,33.6-11.1,53.6s3.9,39.1,11.1,53.6c8.6,17.6,21.3,27.3,35.5,27.3
				c14.8,0,28.2-10.9,36.8-29.9c3.1-6.8,0-14.8-6.8-17.8c-6.8-3.1-14.8,0-17.8,6.8c-4.3,9.6-9.3,14-12.1,14
				c-2.5,0-7.2-3.8-11.3-12.2c-5.3-10.8-8.3-26-8.3-41.7s3-31,8.3-41.7C145.05,282.3,149.65,278.5,152.25,278.5z"/>
			<path d="M270.15,318.9h-18.1v-18.1c0-7.5-6-13.5-13.5-13.5s-13.5,6-13.5,13.5v18.1h-18.1c-7.5,0-13.5,6-13.5,13.5
				s6,13.5,13.5,13.5h18.1V364c0,7.5,6,13.5,13.5,13.5s13.5-6,13.5-13.5v-18.1h18.1c7.5,0,13.5-6,13.5-13.5
				C283.65,325,277.65,318.9,270.15,318.9z"/>
			<path d="M370.15,318.9h-18.1v-18.1c0-7.5-6-13.5-13.5-13.5s-13.5,6-13.5,13.5v18.1h-18.1c-7.5,0-13.5,6-13.5,13.5
				s6,13.5,13.5,13.5h18.1V364c0,7.5,6,13.5,13.5,13.5s13.5-6,13.5-13.5v-18.1h18.1c7.5,0,13.5-6,13.5-13.5
				C383.65,325,377.65,318.9,370.15,318.9z"/>
		</g>
	</g>
</g>
<g>
</g>
<g>
</g>
<g>
</g>
<g>
</g>
<g>
</g>
<g>
</g>
<g>
</g>
<g>
</g>
<g>
</g>
<g>
</g>
<g>
</g>
<g>
</g>
<g>
</g>
<g>
</g>
<g>
</g>
</svg>
