<?xml version="1.0" encoding="iso-8859-1"?>
<!-- Generator: Adobe Illustrator 19.0.0, SVG Export Plug-In . SVG Version: 6.00 Build 0)  -->
<!-- Downlodaded from http://www.flaticon.com/packs/design-and-development-elements -->
<svg version="1.1" id="Capa_1" xmlns="http://www.w3.org/2000/svg" xmlns:xlink="http://www.w3.org/1999/xlink" x="0px" y="0px"
	 viewBox="0 0 490 490" style="enable-background:new 0 0 490 490; fill: rgb(54, 69, 89);" xml:space="preserve">
<g>
	<path d="M400.7,163.9c0-2.1,0-4.2,0-6.2C400.7,71.4,330.1,0.6,245,0.6S89.3,70.2,89.3,156.6c0,2.1,0,4.2,0,6.2
		C37.4,176.3,0,223.2,0,278.3c0,66.6,52.9,119.6,118.3,119.6h105.9v70.7c0,11.4,9.3,20.8,20.8,20.8c11.4,0,20.8-8.3,20.8-19.8v-71.8
		h105.9c64.4,0,117.3-54.1,118.3-118.6C490,224.2,451.6,177.4,400.7,163.9z M371.7,356.3H265.8v-97.8l45.7,45.8
		c7.1,7.2,20.6,9,29.1,1c8.6-8,8.3-20.8,0-29.1l-81-82.2c-7.3-7.3-21.8-7.3-29.1,0l-81,82.2c-8.3,8.3-8.3,20.8,0,29.1
		c8.3,8.3,20.8,8.3,29.1,0l45.7-46.5v97.5H119.4c-42.6,0-76.8-34.3-76.8-78c0-40.6,31.1-74.9,71.6-78c11.6,0.6,20.9-12.4,18.7-22.9
		c-1-7.3-2.1-13.5-2.1-19.8c0-64.5,50.9-116.5,114.2-116.5s114.2,52,115.2,116.5c0,6.2-1,12.5-2.1,19.8
		c-1.6,10.4,5.1,22.2,18.7,22.9c40.5,3.1,71.6,37.5,71.6,78C448.5,320.9,414.2,356.3,371.7,356.3z"/>
</g>
<g>
</g>
<g>
</g>
<g>
</g>
<g>
</g>
<g>
</g>
<g>
</g>
<g>
</g>
<g>
</g>
<g>
</g>
<g>
</g>
<g>
</g>
<g>
</g>
<g>
</g>
<g>
</g>
<g>
</g>
</svg>
